<?xml version="1.0" encoding="UTF-8" standalone="no"?> <svg height="512pt" viewBox="0 0 512 512" width="512pt" xmlns="http://www.w3.org/2000/svg"><path d="m99.226562 37.644531v-27.644531h-40.042968v27.644531c0 5.339844 4.328125 9.671875 9.667968 9.671875h20.707032c5.339844 0 9.667968-4.332031 9.667968-9.671875zm0 0" fill="#4dbaf6"/><path d="m276.023438 37.644531v-27.644531h-40.046876v27.644531c0 5.339844 4.332032 9.671875 9.671876 9.671875h20.707031c5.339843 0 9.667969-4.332031 9.667969-9.671875zm0 0" fill="#4dbaf6"/><path d="m452.816406 37.644531v-27.644531h-40.042968v27.644531c0 5.339844 4.328124 9.671875 9.667968 9.671875h20.707032c5.339843 0 9.667968-4.332031 9.667968-9.671875zm0 0" fill="#4dbaf6"/><g fill="#a0e557"><path d="m113.066406 392.894531v48.648438c20.855469-9.089844 34.933594-28.144531 34.933594-59.507813v-75.378906c-20.863281 16.933594-34.933594 49.023438-34.933594 86.238281zm0 0"/><path d="m78.996094 392.894531c0-39.953125-16.21875-73.996093-39.644532-89.726562v78.867187c0 33.671875 16.21875 53.167969 39.644532 61.363282zm0 0"/><path d="m288.335938 392.894531v49.382813c21.808593-8.777344 36.664062-28.019532 36.664062-60.242188v-76.734375c-21.8125 16.535157-36.664062 49.359375-36.664062 87.59375zm0 0"/><path d="m255.996094 392.894531c0-39.867187-16.148438-73.851562-39.496094-89.625v78.765625c0 33.601563 16.152344 53.089844 39.496094 61.3125zm0 0"/></g><path d="m131.964844 296.71875c-6.089844-34.25-17.488282-61.449219-31.628906-75.304688-11.625 11.390626-21.402344 31.792969-27.894532 57.730469-1.191406 4.765625-2.273437 9.71875-3.238281 14.835938l31.707031 39.148437zm0 0" fill="#ffc66c"/><path d="m308.964844 296.71875c-6.089844-34.25-17.488282-61.449219-31.628906-75.304688-11.625 11.390626-21.402344 31.792969-27.894532 57.730469-1.191406 4.765625-2.273437 9.71875-3.238281 14.835938l31.707031 39.148437zm0 0" fill="#ffc66c"/><path d="m485.964844 296.71875c-6.089844-34.25-17.488282-61.449219-31.628906-75.304688-11.625 11.390626-21.402344 31.792969-27.894532 57.730469-1.191406 4.765625-2.273437 9.71875-3.238281 14.835938l31.707031 39.148437zm0 0" fill="#ffc66c"/><path d="m464.484375 392.894531v49.710938c22.269531-8.617188 37.515625-27.929688 37.515625-60.570313v-77.375c-22.277344 16.320313-37.515625 49.503906-37.515625 88.234375zm0 0" fill="#a0e557"/><path d="m432.996094 392.894531c0-39.582031-15.917969-73.371093-38.996094-89.289062v78.429687c0 33.363282 15.921875 52.816406 38.996094 61.140625zm0 0" fill="#a0e557"/><path d="m325.003906 372.035156c-5.523437 0-10 4.476563-10 10 0 41.871094-27.332031 53.113282-49 55.441406v-44.582031c0-41.542969 18.949219-76.511719 44.484375-86.300781.078125-.011719.152344-.015625.230469-.027344 1.085938-.195312 2.09375-.5625 3.011719-1.058594.425781-.125.84375-.265624 1.273437-.375v4.53125c0 5.523438 4.476563 10 10 10 5.519532 0 10-4.476562 10-10v-15.8125c0-5.523437-4.480468-10-10-10-2.789062 0-5.550781.195313-8.277344.574219-4.730468-21.722656-11.628906-40.390625-20.171874-54.417969-14.40625-23.664062-30.007813-28.632812-40.558594-28.632812-25.46875 0-46.949219 27.460938-58.933594 75.339844-.628906 2.519531-1.234375 5.097656-1.800781 7.710937-2.722657-.378906-5.480469-.570312-8.257813-.570312-5.523437 0-10 4.476562-10 10v88.179687c0 24.683594 8.195313 44.742188 23.707032 58.011719 11.640624 9.957031 27.164062 15.917969 45.289062 17.507813v44.445312c0 5.523438 4.476562 10 10 10s10-4.476562 10-10v-44.445312c18.128906-1.589844 33.652344-7.550782 45.292969-17.507813 15.511719-13.269531 23.707031-33.328125 23.707031-58.011719.003906-5.523437-4.476562-10-9.996094-10zm-108.539062-90.464844c9.011718-36.003906 24.898437-60.195312 39.53125-60.195312 13.429687 0 31.679687 21.691406 41.566406 69.058594-11.089844 5.554687-21.15625 14.527344-29.546875 26.535156-4.738281 6.78125-8.75 14.316406-12.011719 22.398438-3.265625-8.082032-7.277344-15.617188-12.015625-22.398438-8.390625-12.007812-18.464843-20.984375-29.554687-26.539062.632812-3.011719 1.308594-5.980469 2.03125-8.859376zm-19.460938 100.464844v-76.902344c27.785156 7.1875 48.996094 43.804688 48.996094 87.761719v44.582031c-21.667969-2.328124-48.996094-13.570312-48.996094-55.441406zm0 0"/><path d="m325.011719 333.667969h-.007813c-5.523437 0-9.996094 4.476562-9.996094 10 0 5.523437 4.480469 10 10.003907 10 5.523437 0 10-4.476563 10-10 0-5.523438-4.476563-10-10-10zm0 0"/><path d="m148 283.851562c-2.789062 0-5.550781.195313-8.277344.574219-4.730468-21.722656-11.628906-40.390625-20.171875-54.417969-14.40625-23.664062-30.007812-28.632812-40.558593-28.632812-25.46875 0-46.945313 27.460938-58.933594 75.339844-.628906 2.519531-1.230469 5.097656-1.800782 7.710937-2.722656-.378906-5.476562-.570312-8.257812-.570312-5.523438 0-10 4.476562-10 10v88.179687c0 24.683594 8.199219 44.742188 23.707031 58.011719 11.640625 9.957031 27.164063 15.917969 45.289063 17.507813v44.445312c0 5.523438 4.480468 10 10 10 5.523437 0 10-4.476562 10-10v-44.445312c18.128906-1.589844 33.652344-7.550782 45.292968-17.507813 15.511719-13.269531 23.710938-33.328125 23.710938-58.011719v-88.183594c0-5.523437-4.476562-10-10-10zm-108.722656-1.519531h15.058594c5.519531 0 10-4.476562 10-10 0-5.523437-4.480469-10-10-10h-9.015626c9.175782-25.117187 21.835938-40.957031 33.671876-40.957031 13.433593 0 31.683593 21.691406 41.566406 69.058594-11.085938 5.554687-21.15625 14.527344-29.542969 26.535156-4.742187 6.78125-8.75 14.316406-12.015625 22.398438-3.261719-8.082032-7.273438-15.617188-12.011719-22.398438-8.390625-12.007812-18.464843-20.984375-29.554687-26.539062.578125-2.75 1.191406-5.457032 1.84375-8.097657zm-19.277344 99.703125v-76.902344c27.785156 7.1875 48.996094 43.804688 48.996094 87.761719v44.582031c-21.667969-2.328124-48.996094-13.570312-48.996094-55.441406zm118 0c0 41.871094-27.328125 53.113282-48.996094 55.441406v-44.582031c0-41.542969 18.945313-76.511719 44.484375-86.300781.074219-.011719.152344-.015625.226563-.027344 1.085937-.195312 2.09375-.5625 3.015625-1.058594.421875-.125.84375-.265624 1.269531-.375zm0 0"/><path d="m502 283.851562c-2.789062 0-5.550781.195313-8.277344.574219-4.730468-21.722656-11.628906-40.390625-20.171875-54.417969-14.40625-23.664062-30.007812-28.632812-40.558593-28.632812-25.46875 0-46.945313 27.460938-58.933594 75.339844-.628906 2.519531-1.230469 5.097656-1.800782 7.710937-2.722656-.378906-5.476562-.570312-8.257812-.570312-5.523438 0-10 4.476562-10 10v88.179687c0 24.683594 8.199219 44.742188 23.707031 58.011719 11.640625 9.957031 27.164063 15.917969 45.289063 17.507813v44.445312c0 5.523438 4.480468 10 10 10 5.523437 0 10-4.476562 10-10v-44.445312c18.128906-1.589844 33.652344-7.550782 45.292968-17.507813 15.511719-13.269531 23.710938-33.328125 23.710938-58.011719v-88.183594c0-5.523437-4.476562-10-10-10zm-108.539062-2.28125c9.011718-36.003906 24.898437-60.195312 39.53125-60.195312 13.433593 0 31.679687 21.691406 41.566406 69.058594-11.085938 5.554687-21.15625 14.527344-29.542969 26.535156-4.742187 6.78125-8.75 14.316406-12.015625 22.398438-3.265625-8.082032-7.273438-15.617188-12.015625-22.398438-8.390625-12.007812-18.460937-20.984375-29.550781-26.539062.632812-3.011719 1.308594-5.980469 2.027344-8.859376zm-19.460938 100.464844v-76.902344c27.785156 7.1875 48.996094 43.804688 48.996094 87.761719v44.582031c-21.667969-2.328124-48.996094-13.570312-48.996094-55.441406zm118 0c0 41.871094-27.328125 53.113282-48.996094 55.441406v-44.582031c0-41.542969 18.945313-76.511719 44.484375-86.300781.074219-.011719.152344-.015625.226563-.027344 1.085937-.195312 2.09375-.5625 3.015625-1.058594.421875-.125.84375-.265624 1.269531-.375zm0 0"/><path d="m10 20h39.183594v17.644531c0 10.847657 8.820312 19.671875 19.667968 19.671875h20.707032c10.84375 0 19.667968-8.824218 19.667968-19.671875v-17.644531h116.75v17.644531c0 10.847657 8.824219 19.671875 19.667969 19.671875h20.707031c10.847657 0 19.671876-8.824218 19.671876-19.671875v-17.644531h116.75v17.644531c0 10.847657 8.824218 19.671875 19.667968 19.671875h20.707032c10.84375 0 19.667968-8.824218 19.667968-19.671875v-17.644531h39.183594c5.523438 0 10-4.476562 10-10s-4.476562-10-10-10h-492c-5.523438 0-10 4.476562-10 10s4.476562 10 10 10zm432.816406 0v17.316406h-20.042968v-17.316406zm-176.792968 0v17.316406h-20.046876v-17.316406zm-176.796876 0v17.316406h-20.042968v-17.316406zm0 0"/><path d="m210.1875 78.929688-22.140625 22.140624c-3.90625 3.902344-3.90625 10.234376 0 14.140626 1.953125 1.953124 4.511719 2.929687 7.070313 2.929687 2.558593 0 5.117187-.976563 7.070312-2.929687l22.140625-22.140626c3.90625-3.90625 3.90625-10.234374 0-14.140624-3.902344-3.90625-10.234375-3.90625-14.140625 0zm0 0"/><path d="m246.003906 97.070312v18.34375c0 5.523438 4.476563 10 10 10 5.523438 0 10-4.476562 10-10v-18.34375c0-5.523437-4.476562-10-10-10-5.523437 0-10 4.476563-10 10zm0 0"/><path d="m287.554688 78.929688c-3.90625 3.902343-3.90625 10.234374 0 14.140624l22.339843 22.339844c1.953125 1.953125 4.511719 2.929688 7.074219 2.929688 2.558594 0 5.117188-.976563 7.070312-2.929688 3.902344-3.902344 3.902344-10.234375 0-14.140625l-22.34375-22.339843c-3.902343-3.90625-10.234374-3.90625-14.140624 0zm0 0"/><path d="m33.386719 78.929688-22.140625 22.140624c-3.902344 3.902344-3.902344 10.234376 0 14.140626 1.953125 1.953124 4.511718 2.929687 7.070312 2.929687 2.5625 0 5.121094-.976563 7.074219-2.929687l22.140625-22.140626c3.902344-3.90625 3.902344-10.234374 0-14.140624-3.90625-3.90625-10.238281-3.90625-14.144531 0zm0 0"/><path d="m69.203125 97.070312v18.34375c0 5.523438 4.480469 10 10 10 5.523437 0 10-4.476562 10-10v-18.34375c0-5.523437-4.476563-10-10-10-5.519531 0-10 4.476563-10 10zm0 0"/><path d="m110.757812 78.929688c-3.90625 3.90625-3.90625 10.234374 0 14.140624l22.339844 22.339844c1.953125 1.953125 4.511719 2.929688 7.070313 2.929688 2.558593 0 5.121093-.976563 7.070312-2.929688 3.90625-3.902344 3.90625-10.234375 0-14.140625l-22.339843-22.339843c-3.90625-3.90625-10.238282-3.90625-14.140626 0zm0 0"/><path d="m386.9375 78.929688-22.140625 22.140624c-3.902344 3.90625-3.902344 10.238282 0 14.140626 1.953125 1.953124 4.511719 2.929687 7.070313 2.929687 2.5625 0 5.121093-.976563 7.074218-2.929687l22.140625-22.140626c3.902344-3.90625 3.902344-10.234374 0-14.140624-3.90625-3.90625-10.238281-3.90625-14.144531 0zm0 0"/><path d="m422.757812 97.070312v18.34375c0 5.523438 4.476563 10 10 10 5.519532 0 10-4.476562 10-10v-18.34375c0-5.523437-4.480468-10-10-10-5.523437 0-10 4.476563-10 10zm0 0"/><path d="m478.449219 78.929688c-3.902344-3.90625-10.234375-3.90625-14.140625 0-3.90625 3.902343-3.90625 10.234374 0 14.140624l22.339844 22.339844c1.953124 1.953125 4.511718 2.929688 7.070312 2.929688s5.121094-.976563 7.070312-2.929688c3.90625-3.902344 3.90625-10.234375 0-14.140625zm0 0"/><path d="m83.851562 282.328125c2.628907 0 5.207032-1.058594 7.070313-2.917969 1.859375-1.871094 2.929687-4.441406 2.929687-7.082031 0-2.628906-1.070312-5.207031-2.929687-7.066406-1.863281-1.863281-4.441406-2.933594-7.070313-2.933594-2.632812 0-5.210937 1.070313-7.070312 2.933594-1.859375 1.859375-2.929688 4.4375-2.929688 7.066406 0 2.640625 1.070313 5.210937 2.929688 7.082031 1.859375 1.859375 4.4375 2.917969 7.070312 2.917969zm0 0"/></svg>